<?xml version="1.0" standalone="no"?>
<!DOCTYPE svg PUBLIC "-//W3C//DTD SVG 20010904//EN"
 "http://www.w3.org/TR/2001/REC-SVG-20010904/DTD/svg10.dtd">
<svg version="1.0" xmlns="http://www.w3.org/2000/svg"
 width="1536.000000pt" height="1024.000000pt" viewBox="0 0 1536.000000 1024.000000"
 preserveAspectRatio="xMidYMid meet">

<g transform="translate(0.000000,1024.000000) scale(0.100000,-0.100000)"
fill="#000000" stroke="none">
<path d="M10610 7765 l0 -345 355 0 355 0 0 345 0 345 -355 0 -355 0 0 -345z"/>
<path d="M2710 7119 c-148 -10 -308 -70 -406 -151 -55 -45 -51 -48 -107 54
l-32 58 -252 0 -253 0 0 -1405 0 -1405 330 0 330 0 2 588 c1 323 2 601 3 617
4 76 6 85 19 85 18 0 20 -5 51 -180 14 -80 30 -168 36 -197 l10 -51 69 -26
c125 -46 219 -59 370 -53 164 7 235 24 365 87 260 127 435 371 490 687 21 118
21 363 0 469 -79 413 -379 737 -745 808 -101 20 -167 23 -280 15z m89 -579
c80 -15 155 -57 216 -121 84 -88 125 -201 124 -339 -1 -194 -83 -336 -241
-418 -49 -25 -61 -27 -178 -27 -114 0 -130 2 -182 27 -149 70 -237 227 -238
425 0 223 115 394 299 444 76 21 128 23 200 9z"/>
<path d="M6320 7119 c-336 -31 -646 -246 -800 -554 -75 -150 -101 -257 -107
-446 -5 -136 -3 -169 17 -259 23 -110 60 -212 106 -295 89 -160 257 -316 439
-408 71 -36 233 -84 326 -98 119 -17 403 -6 500 19 313 84 548 279 672 559 65
146 96 364 77 538 -16 148 -43 244 -105 371 -104 210 -273 373 -499 480 -115
54 -221 82 -361 94 -121 11 -141 11 -265 -1z m230 -590 c134 -21 233 -91 292
-206 46 -88 60 -149 59 -250 0 -96 -12 -145 -53 -226 -92 -183 -317 -263 -523
-186 -69 25 -154 104 -192 176 -52 97 -66 162 -61 279 4 91 8 109 41 178 62
131 164 215 286 236 66 11 79 11 151 -1z"/>
<path d="M8945 7120 c-208 -18 -354 -74 -531 -205 -21 -15 -23 -13 -70 72
l-49 88 -277 3 -278 2 0 -1405 0 -1405 380 0 380 0 0 645 c0 638 0 645 20 645
11 0 20 -1 20 -2 0 -18 70 -410 74 -417 11 -17 158 -60 261 -77 154 -25 455
-15 590 20 296 77 551 286 680 558 92 194 116 471 60 689 -42 163 -150 351
-271 475 -183 188 -406 288 -694 314 -126 11 -162 11 -295 0z m225 -602 c225
-48 379 -276 341 -506 -25 -145 -119 -271 -255 -337 -84 -41 -149 -55 -260
-55 -323 0 -534 245 -476 550 30 156 151 288 310 339 92 29 229 33 340 9z"/>
<path d="M12625 7120 c-138 -12 -261 -48 -400 -118 -112 -56 -180 -108 -278
-211 -197 -211 -289 -473 -274 -786 13 -269 105 -474 293 -656 89 -85 138
-120 239 -172 172 -88 288 -116 513 -124 257 -9 417 21 590 113 150 79 271
195 365 349 36 60 87 182 87 210 0 13 -43 15 -308 15 l-308 0 -49 -45 c-99
-93 -235 -133 -384 -115 -176 23 -314 141 -350 299 l-9 41 722 2 721 3 -1 170
c0 141 -4 186 -23 265 -25 104 -87 246 -148 337 -59 90 -179 209 -267 267
-211 137 -418 182 -731 156z m315 -551 c31 -14 73 -41 93 -59 39 -33 101 -134
112 -182 l7 -28 -386 0 c-343 0 -386 2 -386 16 0 32 57 131 99 172 84 82 168
112 306 109 83 -2 109 -7 155 -28z"/>
<path d="M4934 7080 c-145 -16 -253 -66 -351 -163 -38 -36 -56 -48 -63 -41 -6
6 -35 53 -64 105 l-53 94 -231 3 -232 2 0 -990 0 -990 370 0 369 0 3 553 3
552 26 55 c29 61 101 133 156 157 62 25 181 43 294 43 l109 0 -2 313 -3 312
-130 1 c-71 1 -162 -2 -201 -6z"/>
<path d="M10597 7073 c-4 -3 -7 -449 -7 -990 l0 -983 365 0 365 0 0 990 0 990
-358 0 c-197 0 -362 -3 -365 -7z"/>
<path d="M10715 4091 c-76 -18 -115 -71 -115 -156 l0 -45 -40 0 -40 0 0 -55 0
-55 40 0 41 0 -2 -162 -1 -163 76 -3 76 -3 0 166 0 165 50 0 50 0 0 55 0 55
-50 0 c-50 0 -50 0 -50 33 0 43 15 57 62 57 l38 0 0 54 0 53 -37 7 c-44 7 -58
6 -98 -3z"/>
<path d="M4617 4083 c-2 -5 -7 -25 -11 -46 -4 -21 -9 -44 -12 -51 -4 -9 7 -16
32 -21 35 -6 40 -4 95 51 33 32 59 62 59 66 0 10 -157 10 -163 1z"/>
<path d="M5460 4025 l0 -65 80 0 80 0 0 65 0 65 -80 0 -80 0 0 -65z"/>
<path d="M6050 3970 l0 -120 -37 24 c-70 46 -159 43 -234 -7 -105 -71 -117
-266 -22 -359 47 -46 79 -58 149 -58 58 0 85 9 122 43 l22 20 0 -31 0 -32 75
0 75 0 0 320 0 320 -75 0 -75 0 0 -120z m-37 -207 c22 -21 39 -85 31 -118 -9
-38 -59 -75 -101 -75 -54 0 -93 44 -93 107 0 53 19 89 54 103 28 12 86 3 109
-17z"/>
<path d="M11239 4063 c-5 -15 -11 -43 -12 -63 -2 -33 0 -35 32 -38 30 -3 41 4
92 54 33 32 59 62 59 66 0 4 -36 8 -80 8 -78 0 -81 -1 -91 -27z"/>
<path d="M11930 4025 l0 -65 75 0 75 0 0 65 0 65 -75 0 -75 0 0 -65z"/>
<path d="M12170 3770 l0 -320 75 0 75 0 0 320 0 320 -75 0 -75 0 0 -320z"/>
<path d="M4174 3896 c-17 -8 -34 -21 -37 -30 -9 -23 -27 -20 -27 4 0 18 -7 20
-70 20 l-70 0 0 -220 0 -220 80 0 80 0 0 138 c1 163 5 173 80 180 l51 5 -3 66
c-3 62 -4 66 -28 68 -14 2 -39 -4 -56 -11z"/>
<path d="M4450 3901 c-111 -36 -163 -108 -163 -226 0 -141 81 -225 218 -225
59 0 85 9 123 43 l22 20 0 -31 0 -32 70 0 70 0 0 220 0 220 -70 0 c-63 0 -70
-2 -70 -20 0 -19 -2 -19 -40 6 -43 29 -115 40 -160 25z m123 -120 c46 -18 67
-50 67 -104 0 -87 -73 -132 -150 -92 -64 33 -62 146 4 186 35 22 45 23 79 10z"/>
<path d="M5105 3899 c-17 -4 -40 -18 -52 -29 -28 -25 -33 -25 -33 0 0 18 -7
20 -70 20 l-70 0 0 -295 0 -295 75 0 75 0 0 95 c0 52 1 95 3 95 1 0 20 -9 42
-20 54 -27 144 -27 203 1 56 28 91 80 104 161 31 181 -109 316 -277 267z m75
-128 c93 -49 56 -201 -50 -201 -54 0 -90 32 -97 87 -7 56 12 102 51 119 42 18
55 17 96 -5z"/>
<path d="M6422 3892 c-65 -23 -94 -50 -127 -116 -45 -90 -28 -203 41 -268 46
-43 100 -61 185 -61 122 -1 205 49 237 142 15 42 15 124 2 173 -32 112 -202
178 -338 130z m155 -122 c65 -39 66 -152 3 -185 -37 -19 -90 -19 -117 0 -48
34 -54 133 -10 172 41 38 78 42 124 13z"/>
<path d="M7334 3895 c-57 -21 -94 -64 -101 -114 -12 -87 34 -130 161 -149 38
-6 76 -18 85 -27 14 -13 14 -17 -2 -32 -26 -26 -94 -23 -117 5 -15 18 -28 22
-79 22 -57 0 -61 -2 -61 -22 0 -40 38 -88 85 -109 53 -23 171 -29 227 -10 20
7 51 28 68 47 25 29 30 43 30 85 0 28 -5 59 -10 70 -16 28 -76 55 -154 68 -91
16 -110 26 -96 51 15 29 95 28 112 0 11 -17 24 -20 75 -20 59 0 63 2 63 23 0
36 -35 82 -76 102 -51 24 -157 29 -210 10z"/>
<path d="M7848 3901 c-46 -15 -106 -53 -125 -80 -62 -84 -57 -222 10 -298 86
-98 278 -104 364 -11 25 26 46 75 38 88 -3 5 -31 8 -63 7 -43 -2 -65 -8 -86
-24 -32 -26 -91 -30 -118 -9 -22 16 -49 67 -42 78 3 4 77 8 165 8 l159 0 0 23
c0 38 -28 122 -51 151 -45 57 -175 91 -251 67z m132 -121 c40 -40 28 -50 -65
-50 -92 0 -101 7 -63 47 29 31 99 32 128 3z"/>
<path d="M8329 3896 c-95 -34 -139 -100 -139 -207 0 -90 38 -156 112 -193 29
-14 69 -26 90 -26 42 0 102 22 130 47 17 15 18 14 18 -16 0 -73 -55 -119 -127
-108 -20 4 -46 15 -58 27 -17 16 -35 20 -88 20 l-66 0 11 -32 c26 -80 106
-123 228 -123 115 0 182 37 221 120 16 35 19 67 19 263 l0 222 -66 0 c-58 0
-67 -2 -71 -20 -5 -19 -7 -19 -22 -6 -47 43 -126 56 -192 32z m169 -131 c39
-32 48 -72 28 -119 -20 -48 -74 -73 -118 -55 -72 30 -92 117 -39 170 38 38 87
39 129 4z"/>
<path d="M9470 3899 c-14 -6 -37 -22 -52 -36 l-28 -27 0 27 c0 27 -1 27 -65
27 l-65 0 0 -220 0 -220 75 0 75 0 0 135 c0 131 1 137 25 160 18 18 35 25 65
25 l40 0 0 70 c0 66 -1 70 -22 69 -13 0 -34 -5 -48 -10z"/>
<path d="M9732 3895 c-105 -33 -162 -110 -162 -219 1 -144 94 -229 250 -229
156 0 250 86 250 228 0 37 -8 76 -19 100 -48 106 -191 160 -319 120z m127
-116 c38 -14 61 -54 61 -109 0 -76 -69 -119 -144 -90 -54 20 -74 115 -35 164
34 43 66 53 118 35z"/>
<path d="M11019 3896 c-75 -26 -120 -78 -139 -158 -25 -102 9 -207 82 -255 61
-41 160 -45 223 -10 l45 26 0 -25 c0 -23 3 -24 70 -24 l70 0 0 220 0 220 -70
0 c-63 0 -70 -2 -70 -20 0 -11 -4 -20 -10 -20 -5 0 -10 5 -10 10 0 17 -81 50
-120 49 -19 0 -51 -6 -71 -13z m146 -120 c42 -18 55 -42 55 -101 0 -91 -90
-137 -158 -80 -57 47 -47 142 18 176 42 23 42 23 85 5z"/>
<path d="M11566 3891 c-61 -25 -90 -52 -117 -108 -18 -37 -21 -57 -17 -124 4
-68 9 -86 34 -121 43 -61 105 -90 196 -91 79 -1 132 19 175 65 19 20 53 86 53
103 0 3 -32 5 -71 5 -64 0 -74 -3 -95 -25 -51 -55 -138 -21 -151 57 -17 110
79 180 147 108 26 -28 33 -30 95 -30 l68 0 -6 35 c-3 19 -15 48 -26 64 -49 69
-192 99 -285 62z"/>
<path d="M5462 3673 l3 -218 78 -3 77 -3 0 221 0 220 -80 0 -80 0 2 -217z"/>
<path d="M8750 3741 c0 -155 8 -200 44 -240 33 -37 80 -52 168 -52 106 0 163
26 196 91 20 40 22 58 22 197 l0 153 -69 0 -70 0 -3 -146 c-3 -162 -8 -174
-73 -174 -58 0 -65 19 -65 178 l0 142 -75 0 -75 0 0 -149z"/>
<path d="M11930 3670 l0 -220 75 0 75 0 0 220 0 220 -75 0 -75 0 0 -220z"/>
<path d="M6830 3515 l0 -65 35 0 c23 0 35 -5 35 -13 0 -19 -33 -47 -53 -47
-13 0 -17 -9 -17 -41 0 -41 0 -41 32 -35 83 16 109 58 111 173 l1 88 -72 3
-72 3 0 -66z"/>
<path d="M10139 3548 c-4 -93 -4 -93 24 -94 37 -1 42 -9 29 -39 -8 -17 -20
-25 -37 -25 -24 0 -26 -3 -23 -37 4 -45 28 -54 78 -28 53 27 70 68 70 168 l0
87 -70 0 -70 0 -1 -32z"/>
</g>
</svg>
